<svg xmlns="http://www.w3.org/2000/svg" viewBox="0 0 1000 1250" width="1000" height="1250" role="img">

<defs>
  <linearGradient id="bg" x1="0" y1="0" x2="1" y2="1">
    <stop offset="0" stop-color="#FFFBF9"/>
    <stop offset="0.55" stop-color="#FDEAF1"/>
    <stop offset="1" stop-color="#FCD6E2"/>
  </linearGradient>
  <radialGradient id="bloom">
    <stop offset="0" stop-color="#FFFFFF" stop-opacity="0.95"/>
    <stop offset="1" stop-color="#FFFFFF" stop-opacity="0"/>
  </radialGradient>
  <radialGradient id="bloom2">
    <stop offset="0" stop-color="#F8B6C8" stop-opacity="0.4"/>
    <stop offset="1" stop-color="#F8B6C8" stop-opacity="0"/>
  </radialGradient>
  <linearGradient id="body" x1="0" y1="0" x2="1" y2="0.2">
    <stop offset="0" stop-color="#E38FA8"/>
    <stop offset="0.28" stop-color="#F8B6C8"/>
    <stop offset="0.52" stop-color="#FFFFFF" stop-opacity="0.92"/>
    <stop offset="0.72" stop-color="#F8B6C8"/>
    <stop offset="1" stop-color="#E38FA8"/>
  </linearGradient>
  <linearGradient id="cap" x1="0" y1="0" x2="1" y2="0.3">
    <stop offset="0" stop-color="#F4D58D" stop-opacity="0.95"/>
    <stop offset="0.45" stop-color="#FFFFFF" stop-opacity="0.9"/>
    <stop offset="1" stop-color="#F4D58D"/>
  </linearGradient>
  <linearGradient id="cream" x1="0" y1="0" x2="0.4" y2="1">
    <stop offset="0" stop-color="#FFFFFF"/>
    <stop offset="1" stop-color="#FCD6E2"/>
  </linearGradient>
  <linearGradient id="glassg" x1="0" y1="0" x2="1" y2="1">
    <stop offset="0" stop-color="#FFFFFF" stop-opacity="0.85"/>
    <stop offset="0.5" stop-color="#FCD6E2" stop-opacity="0.7"/>
    <stop offset="1" stop-color="#F8B6C8" stop-opacity="0.55"/>
  </linearGradient>
  <linearGradient id="gloss" x1="0" y1="0" x2="0" y2="1">
    <stop offset="0" stop-color="#FFFFFF" stop-opacity="0.9"/>
    <stop offset="1" stop-color="#FFFFFF" stop-opacity="0"/>
  </linearGradient>
  <radialGradient id="shadow">
    <stop offset="0" stop-color="#E38FA8" stop-opacity="0.4"/>
    <stop offset="1" stop-color="#E38FA8" stop-opacity="0"/>
  </radialGradient>
  <filter id="soft" x="-30%" y="-30%" width="160%" height="160%">
    <feGaussianBlur stdDeviation="9" result="b"/>
    <feComposite in="SourceGraphic" in2="b" operator="over"/>
  </filter>
</defs>

  <rect width="1000" height="1250" rx="0" fill="url(#bg)"/>
  <circle cx="680" cy="450" r="440" fill="url(#bloom)"/>
  <circle cx="200" cy="925" r="300" fill="url(#bloom2)"/>
  <g transform="translate(83.91030978775612 1012.9620689181257) rotate(37.465853949511285) scale(0.5390510015208748)" opacity="0.5176400628151745">
    <ellipse cx="0" cy="-26" rx="15" ry="24" fill="#FCD6E2" transform="rotate(0)"/><ellipse cx="0" cy="-26" rx="15" ry="24" fill="#FCD6E2" transform="rotate(72)"/><ellipse cx="0" cy="-26" rx="15" ry="24" fill="#FCD6E2" transform="rotate(144)"/><ellipse cx="0" cy="-26" rx="15" ry="24" fill="#FCD6E2" transform="rotate(216)"/><ellipse cx="0" cy="-26" rx="15" ry="24" fill="#FCD6E2" transform="rotate(288)"/><circle r="11" fill="#F4D58D"/></g><g transform="translate(534.4739654329363 320.31807035703036) rotate(3.668760195065998) scale(0.30397737988361845)" opacity="0.7336448420012788">
    <ellipse cx="0" cy="-26" rx="15" ry="24" fill="#FCD6E2" transform="rotate(0)"/><ellipse cx="0" cy="-26" rx="15" ry="24" fill="#FCD6E2" transform="rotate(72)"/><ellipse cx="0" cy="-26" rx="15" ry="24" fill="#FCD6E2" transform="rotate(144)"/><ellipse cx="0" cy="-26" rx="15" ry="24" fill="#FCD6E2" transform="rotate(216)"/><ellipse cx="0" cy="-26" rx="15" ry="24" fill="#FCD6E2" transform="rotate(288)"/><circle r="11" fill="#F4D58D"/></g><g transform="translate(173.70906359861516 945.3999780774116) rotate(46.887968915410305) scale(0.543747824552234)" opacity="0.5655258006048629">
    <ellipse cx="0" cy="-26" rx="15" ry="24" fill="#FCD6E2" transform="rotate(0)"/><ellipse cx="0" cy="-26" rx="15" ry="24" fill="#FCD6E2" transform="rotate(72)"/><ellipse cx="0" cy="-26" rx="15" ry="24" fill="#FCD6E2" transform="rotate(144)"/><ellipse cx="0" cy="-26" rx="15" ry="24" fill="#FCD6E2" transform="rotate(216)"/><ellipse cx="0" cy="-26" rx="15" ry="24" fill="#FCD6E2" transform="rotate(288)"/><circle r="11" fill="#F4D58D"/></g>
  <path d="M 128.23058731689173 58.00231755515776 Q 130.4573632229803 69.69289106212267 142.1479367299452 71.91966696821122
           Q 130.4573632229803 74.14644287429977 128.23058731689173 85.83701638126468
           Q 126.00381141080318 74.14644287429977 114.31323790383827 71.91966696821122
           Q 126.00381141080318 69.69289106212267 128.23058731689173 58.00231755515776 Z"
        fill="#F4D58D" opacity="0.894009017752492"/>
  <path d="M 305.55703769955505 597.6537116546684 Q 309.34130499006557 617.5211149298485 329.2087082652456 621.305382220359
           Q 309.34130499006557 625.0896495108694 305.55703769955505 644.9570527860495
           Q 301.77277040904454 625.0896495108694 281.9053671338645 621.305382220359
           Q 301.77277040904454 617.5211149298485 305.55703769955505 597.6537116546684 Z"
        fill="#F4D58D" opacity="0.6143462949566043"/>
  <g transform="translate(539.090378069403 563.0300831590127) rotate(-12.367926691070132) scale(0.2714253324097259)" opacity="0.4683389023815644">
    <path d="M0 34 C -30 8 -46 -8 -46 -28 C -46 -46 -32 -58 -17 -58 C -7 -58 0 -52 0 -44
             C 0 -52 7 -58 17 -58 C 32 -58 46 -46 46 -28 C 46 -8 30 8 0 34 Z" fill="#F8B6C8"/>
  </g>
  <g transform="translate(410.56814240344625 881.5564165884223) rotate(15.23849930170784) scale(0.25420690015815844)" opacity="0.43616957134676126">
    <path d="M0 34 C -30 8 -46 -8 -46 -28 C -46 -46 -32 -58 -17 -58 C -7 -58 0 -52 0 -44
             C 0 -52 7 -58 17 -58 C 32 -58 46 -46 46 -28 C 46 -8 30 8 0 34 Z" fill="#F8B6C8"/>
  </g>
  <g transform="translate(725.935984846145 1149.1509138505448) rotate(14.631809790275817) scale(0.5071216919572294)" opacity="0.5779494812273881">
    <path d="M0 34 C -30 8 -46 -8 -46 -28 C -46 -46 -32 -58 -17 -58 C -7 -58 0 -52 0 -44
             C 0 -52 7 -58 17 -58 C 32 -58 46 -46 46 -28 C 46 -8 30 8 0 34 Z" fill="#F8B6C8"/>
  </g>
<ellipse cx="500" cy="900" rx="230" ry="44" fill="url(#shadow)"/>
<g transform="translate(500 625) rotate(-7) scale(1.12) translate(-500 -625)">

    <g>
      <path d="M330 520 c0 -60 46 -84 46 -128 v-42 h248 v42 c0 44 46 68 46 128 v210
               a92 92 0 0 1 -92 92 H422 a92 92 0 0 1 -92 -92 Z" fill="url(#glassg)"/>
      <path d="M330 640 v90 a92 92 0 0 0 92 92 h156 a92 92 0 0 0 92 -92 v-90 Z"
            fill="#F8B6C8" opacity="0.7"/>
      <rect x="366" y="546" width="44" height="260" rx="22" fill="url(#gloss)" opacity="0.55"/>
      <rect x="376" y="286" width="248" height="72" rx="24" fill="#FCD6E2"/>
      <rect x="418" y="196" width="164" height="104" rx="40" fill="url(#cap)"/>
      <rect x="452" y="222" width="34" height="56" rx="17" fill="#FFFFFF" opacity="0.6"/>
      <ellipse cx="500" cy="700" rx="96" ry="60" fill="#FFFFFF" opacity="0.5"/>
      
  <g transform="translate(500 700) rotate(0) scale(0.66)" opacity="0.35">
    <path d="M0 34 C -30 8 -46 -8 -46 -28 C -46 -46 -32 -58 -17 -58 C -7 -58 0 -52 0 -44
             C 0 -52 7 -58 17 -58 C 32 -58 46 -46 46 -28 C 46 -8 30 8 0 34 Z" fill="#E38FA8"/>
  </g>
    </g>
</g>
</svg>