<svg xmlns="http://www.w3.org/2000/svg" viewBox="0 0 1000 1250" width="1000" height="1250" role="img">

<defs>
  <linearGradient id="bg" x1="0" y1="0" x2="1" y2="1">
    <stop offset="0" stop-color="#FFFBF9"/>
    <stop offset="0.55" stop-color="#F5F1FD"/>
    <stop offset="1" stop-color="#ECE5FB"/>
  </linearGradient>
  <radialGradient id="bloom">
    <stop offset="0" stop-color="#FFFFFF" stop-opacity="0.95"/>
    <stop offset="1" stop-color="#FFFFFF" stop-opacity="0"/>
  </radialGradient>
  <radialGradient id="bloom2">
    <stop offset="0" stop-color="#DCCEF5" stop-opacity="0.4"/>
    <stop offset="1" stop-color="#DCCEF5" stop-opacity="0"/>
  </radialGradient>
  <linearGradient id="body" x1="0" y1="0" x2="1" y2="0.2">
    <stop offset="0" stop-color="#B7A2E2"/>
    <stop offset="0.28" stop-color="#DCCEF5"/>
    <stop offset="0.52" stop-color="#FFFFFF" stop-opacity="0.92"/>
    <stop offset="0.72" stop-color="#DCCEF5"/>
    <stop offset="1" stop-color="#B7A2E2"/>
  </linearGradient>
  <linearGradient id="cap" x1="0" y1="0" x2="1" y2="0.3">
    <stop offset="0" stop-color="#BFDCD5" stop-opacity="0.95"/>
    <stop offset="0.45" stop-color="#FFFFFF" stop-opacity="0.9"/>
    <stop offset="1" stop-color="#BFDCD5"/>
  </linearGradient>
  <linearGradient id="cream" x1="0" y1="0" x2="0.4" y2="1">
    <stop offset="0" stop-color="#FFFFFF"/>
    <stop offset="1" stop-color="#ECE5FB"/>
  </linearGradient>
  <linearGradient id="glassg" x1="0" y1="0" x2="1" y2="1">
    <stop offset="0" stop-color="#FFFFFF" stop-opacity="0.85"/>
    <stop offset="0.5" stop-color="#ECE5FB" stop-opacity="0.7"/>
    <stop offset="1" stop-color="#DCCEF5" stop-opacity="0.55"/>
  </linearGradient>
  <linearGradient id="gloss" x1="0" y1="0" x2="0" y2="1">
    <stop offset="0" stop-color="#FFFFFF" stop-opacity="0.9"/>
    <stop offset="1" stop-color="#FFFFFF" stop-opacity="0"/>
  </linearGradient>
  <radialGradient id="shadow">
    <stop offset="0" stop-color="#B7A2E2" stop-opacity="0.4"/>
    <stop offset="1" stop-color="#B7A2E2" stop-opacity="0"/>
  </radialGradient>
  <filter id="soft" x="-30%" y="-30%" width="160%" height="160%">
    <feGaussianBlur stdDeviation="9" result="b"/>
    <feComposite in="SourceGraphic" in2="b" operator="over"/>
  </filter>
</defs>

  <rect width="1000" height="1250" rx="0" fill="url(#bg)"/>
  <circle cx="500" cy="450" r="440" fill="url(#bloom)"/>
  <circle cx="200" cy="925" r="300" fill="url(#bloom2)"/>
  
  <path d="M 557.1123201000619 758.0530447379249 Q 562.002659425872 783.7273261984283 587.6769408863754 788.6176655242384
           Q 562.002659425872 793.5080048500486 557.1123201000619 819.182286310552
           Q 552.2219807742517 793.5080048500486 526.5476993137484 788.6176655242384
           Q 552.2219807742517 783.7273261984283 557.1123201000619 758.0530447379249 Z"
        fill="#BFDCD5" opacity="0.8847659865252357"/>
  <g transform="translate(848.1616450177148 770.5499801417347) rotate(13.473140287653674) scale(0.3210463218726649)" opacity="0.6389235006774994">
    <path d="M0 34 C -30 8 -46 -8 -46 -28 C -46 -46 -32 -58 -17 -58 C -7 -58 0 -52 0 -44
             C 0 -52 7 -58 17 -58 C 32 -58 46 -46 46 -28 C 46 -8 30 8 0 34 Z" fill="#DCCEF5"/>
  </g>
  <path d="M 573.311417077958 295.4761030649543 Q 577.502864543571 317.48120225942245 599.507963738039 321.6726497250354
           Q 577.502864543571 325.86409719064835 573.311417077958 347.8691963851165
           Q 569.119969612345 325.86409719064835 547.114870417877 321.6726497250354
           Q 569.119969612345 317.48120225942245 573.311417077958 295.4761030649543 Z"
        fill="#BFDCD5" opacity="0.7295455485857516"/><g transform="translate(869.8782917204111 114.46377995374033) rotate(4.4474919740552945) scale(0.32990225225677916)" opacity="0.48409185455096126">
    <ellipse cx="0" cy="-26" rx="15" ry="24" fill="#ECE5FB" transform="rotate(0)"/><ellipse cx="0" cy="-26" rx="15" ry="24" fill="#ECE5FB" transform="rotate(72)"/><ellipse cx="0" cy="-26" rx="15" ry="24" fill="#ECE5FB" transform="rotate(144)"/><ellipse cx="0" cy="-26" rx="15" ry="24" fill="#ECE5FB" transform="rotate(216)"/><ellipse cx="0" cy="-26" rx="15" ry="24" fill="#ECE5FB" transform="rotate(288)"/><circle r="11" fill="#BFDCD5"/></g>
  <path d="M 538.2057627180644 215.06271930687384 Q 542.7213734025669 238.769675400512 566.428329496205 243.28528608501452
           Q 542.7213734025669 247.80089676951704 538.2057627180644 271.50785286315516
           Q 533.690152033562 247.80089676951704 509.98319593992375 243.28528608501452
           Q 533.690152033562 238.769675400512 538.2057627180644 215.06271930687384 Z"
        fill="#BFDCD5" opacity="0.5408869484820281"/><g transform="translate(901.9337881840149 626.5207363912098) rotate(29.826907203371547) scale(0.43477819918727334)" opacity="0.654552726754502">
    <ellipse cx="0" cy="-26" rx="15" ry="24" fill="#ECE5FB" transform="rotate(0)"/><ellipse cx="0" cy="-26" rx="15" ry="24" fill="#ECE5FB" transform="rotate(72)"/><ellipse cx="0" cy="-26" rx="15" ry="24" fill="#ECE5FB" transform="rotate(144)"/><ellipse cx="0" cy="-26" rx="15" ry="24" fill="#ECE5FB" transform="rotate(216)"/><ellipse cx="0" cy="-26" rx="15" ry="24" fill="#ECE5FB" transform="rotate(288)"/><circle r="11" fill="#BFDCD5"/></g><g transform="translate(77.92956273809966 1144.0767961731895) rotate(39.09875069660949) scale(0.2645215069693714)" opacity="0.5674863274139225">
    <ellipse cx="0" cy="-26" rx="15" ry="24" fill="#ECE5FB" transform="rotate(0)"/><ellipse cx="0" cy="-26" rx="15" ry="24" fill="#ECE5FB" transform="rotate(72)"/><ellipse cx="0" cy="-26" rx="15" ry="24" fill="#ECE5FB" transform="rotate(144)"/><ellipse cx="0" cy="-26" rx="15" ry="24" fill="#ECE5FB" transform="rotate(216)"/><ellipse cx="0" cy="-26" rx="15" ry="24" fill="#ECE5FB" transform="rotate(288)"/><circle r="11" fill="#BFDCD5"/></g>
  <g transform="translate(478.0542932060122 752.1459185212346) rotate(13.92357330389654) scale(0.43191933195751103)" opacity="0.44484387624062954">
    <path d="M0 34 C -30 8 -46 -8 -46 -28 C -46 -46 -32 -58 -17 -58 C -7 -58 0 -52 0 -44
             C 0 -52 7 -58 17 -58 C 32 -58 46 -46 46 -28 C 46 -8 30 8 0 34 Z" fill="#DCCEF5"/>
  </g>
<ellipse cx="500" cy="900" rx="230" ry="44" fill="url(#shadow)"/>
<g transform="translate(500 625) rotate(0) scale(1.12) translate(-500 -625)">

    <g>
      
      <rect x="428" y="392" width="150" height="452" rx="72" fill="url(#glassg)"/>
      <rect x="446" y="470" width="114" height="360" rx="56" fill="#DCCEF5" opacity="0.85"/>
      <rect x="462" y="436" width="34" height="380" rx="17" fill="url(#gloss)" opacity="0.6"/>
      <rect x="418" y="250" width="170" height="168" rx="52" fill="url(#cap)"/>
      <rect x="446" y="272" width="36" height="120" rx="18" fill="#FFFFFF" opacity="0.5"/>
      <rect x="418" y="398" width="170" height="26" rx="13" fill="#B7A2E2" opacity="0.35"/>
      
  <g transform="translate(503 700) rotate(0) scale(0.62)" opacity="0.6">
    <path d="M0 34 C -30 8 -46 -8 -46 -28 C -46 -46 -32 -58 -17 -58 C -7 -58 0 -52 0 -44
             C 0 -52 7 -58 17 -58 C 32 -58 46 -46 46 -28 C 46 -8 30 8 0 34 Z" fill="#FFFFFF"/>
  </g>
    </g>
</g>
</svg>