<svg xmlns="http://www.w3.org/2000/svg" viewBox="0 0 1000 1250" width="1000" height="1250" role="img">

<defs>
  <linearGradient id="bg" x1="0" y1="0" x2="1" y2="1">
    <stop offset="0" stop-color="#FFFBF9"/>
    <stop offset="0.55" stop-color="#F5F1FD"/>
    <stop offset="1" stop-color="#ECE5FB"/>
  </linearGradient>
  <radialGradient id="bloom">
    <stop offset="0" stop-color="#FFFFFF" stop-opacity="0.95"/>
    <stop offset="1" stop-color="#FFFFFF" stop-opacity="0"/>
  </radialGradient>
  <radialGradient id="bloom2">
    <stop offset="0" stop-color="#DCCEF5" stop-opacity="0.4"/>
    <stop offset="1" stop-color="#DCCEF5" stop-opacity="0"/>
  </radialGradient>
  <linearGradient id="body" x1="0" y1="0" x2="1" y2="0.2">
    <stop offset="0" stop-color="#B7A2E2"/>
    <stop offset="0.28" stop-color="#DCCEF5"/>
    <stop offset="0.52" stop-color="#FFFFFF" stop-opacity="0.92"/>
    <stop offset="0.72" stop-color="#DCCEF5"/>
    <stop offset="1" stop-color="#B7A2E2"/>
  </linearGradient>
  <linearGradient id="cap" x1="0" y1="0" x2="1" y2="0.3">
    <stop offset="0" stop-color="#BFDCD5" stop-opacity="0.95"/>
    <stop offset="0.45" stop-color="#FFFFFF" stop-opacity="0.9"/>
    <stop offset="1" stop-color="#BFDCD5"/>
  </linearGradient>
  <linearGradient id="cream" x1="0" y1="0" x2="0.4" y2="1">
    <stop offset="0" stop-color="#FFFFFF"/>
    <stop offset="1" stop-color="#ECE5FB"/>
  </linearGradient>
  <linearGradient id="glassg" x1="0" y1="0" x2="1" y2="1">
    <stop offset="0" stop-color="#FFFFFF" stop-opacity="0.85"/>
    <stop offset="0.5" stop-color="#ECE5FB" stop-opacity="0.7"/>
    <stop offset="1" stop-color="#DCCEF5" stop-opacity="0.55"/>
  </linearGradient>
  <linearGradient id="gloss" x1="0" y1="0" x2="0" y2="1">
    <stop offset="0" stop-color="#FFFFFF" stop-opacity="0.9"/>
    <stop offset="1" stop-color="#FFFFFF" stop-opacity="0"/>
  </linearGradient>
  <radialGradient id="shadow">
    <stop offset="0" stop-color="#B7A2E2" stop-opacity="0.4"/>
    <stop offset="1" stop-color="#B7A2E2" stop-opacity="0"/>
  </radialGradient>
  <filter id="soft" x="-30%" y="-30%" width="160%" height="160%">
    <feGaussianBlur stdDeviation="9" result="b"/>
    <feComposite in="SourceGraphic" in2="b" operator="over"/>
  </filter>
</defs>

  <rect width="1000" height="1250" rx="0" fill="url(#bg)"/>
  <circle cx="680" cy="450" r="440" fill="url(#bloom)"/>
  <circle cx="200" cy="925" r="300" fill="url(#bloom2)"/>
  <g transform="translate(817.2264837913461 141.65174344242712) rotate(81.44596643414904) scale(0.5785961271017753)" opacity="0.6430941086337847">
    <ellipse cx="0" cy="-26" rx="15" ry="24" fill="#ECE5FB" transform="rotate(0)"/><ellipse cx="0" cy="-26" rx="15" ry="24" fill="#ECE5FB" transform="rotate(72)"/><ellipse cx="0" cy="-26" rx="15" ry="24" fill="#ECE5FB" transform="rotate(144)"/><ellipse cx="0" cy="-26" rx="15" ry="24" fill="#ECE5FB" transform="rotate(216)"/><ellipse cx="0" cy="-26" rx="15" ry="24" fill="#ECE5FB" transform="rotate(288)"/><circle r="11" fill="#BFDCD5"/></g><g transform="translate(570.3090675364333 682.4372077895674) rotate(48.14350869333698) scale(0.3061135582366153)" opacity="0.668090490552681">
    <ellipse cx="0" cy="-26" rx="15" ry="24" fill="#ECE5FB" transform="rotate(0)"/><ellipse cx="0" cy="-26" rx="15" ry="24" fill="#ECE5FB" transform="rotate(72)"/><ellipse cx="0" cy="-26" rx="15" ry="24" fill="#ECE5FB" transform="rotate(144)"/><ellipse cx="0" cy="-26" rx="15" ry="24" fill="#ECE5FB" transform="rotate(216)"/><ellipse cx="0" cy="-26" rx="15" ry="24" fill="#ECE5FB" transform="rotate(288)"/><circle r="11" fill="#BFDCD5"/></g>
  <g transform="translate(528.1978374702835 703.8067829830635) rotate(-5.839238433017616) scale(0.4569367176731459)" opacity="0.44126413624385763">
    <path d="M0 34 C -30 8 -46 -8 -46 -28 C -46 -46 -32 -58 -17 -58 C -7 -58 0 -52 0 -44
             C 0 -52 7 -58 17 -58 C 32 -58 46 -46 46 -28 C 46 -8 30 8 0 34 Z" fill="#DCCEF5"/>
  </g>
  <g transform="translate(402.5295788911447 772.9611304243664) rotate(12.119319526589774) scale(0.4887822839652954)" opacity="0.5173841847501548">
    <path d="M0 34 C -30 8 -46 -8 -46 -28 C -46 -46 -32 -58 -17 -58 C -7 -58 0 -52 0 -44
             C 0 -52 7 -58 17 -58 C 32 -58 46 -46 46 -28 C 46 -8 30 8 0 34 Z" fill="#DCCEF5"/>
  </g><g transform="translate(533.5239803730733 802.5241496670285) rotate(59.14961015726403) scale(0.41434821305828934)" opacity="0.7180400103358924">
    <ellipse cx="0" cy="-26" rx="15" ry="24" fill="#ECE5FB" transform="rotate(0)"/><ellipse cx="0" cy="-26" rx="15" ry="24" fill="#ECE5FB" transform="rotate(72)"/><ellipse cx="0" cy="-26" rx="15" ry="24" fill="#ECE5FB" transform="rotate(144)"/><ellipse cx="0" cy="-26" rx="15" ry="24" fill="#ECE5FB" transform="rotate(216)"/><ellipse cx="0" cy="-26" rx="15" ry="24" fill="#ECE5FB" transform="rotate(288)"/><circle r="11" fill="#BFDCD5"/></g>
  <g transform="translate(810.5379215167258 458.30364139126954) rotate(-3.1575130179128728) scale(0.3673613951796307)" opacity="0.6196018734430913">
    <path d="M0 34 C -30 8 -46 -8 -46 -28 C -46 -46 -32 -58 -17 -58 C -7 -58 0 -52 0 -44
             C 0 -52 7 -58 17 -58 C 32 -58 46 -46 46 -28 C 46 -8 30 8 0 34 Z" fill="#DCCEF5"/>
  </g>
  <g transform="translate(396.77308951204 218.8427417807679) rotate(-13.876739017550591) scale(0.4389095931722872)" opacity="0.4323888474212856">
    <path d="M0 34 C -30 8 -46 -8 -46 -28 C -46 -46 -32 -58 -17 -58 C -7 -58 0 -52 0 -44
             C 0 -52 7 -58 17 -58 C 32 -58 46 -46 46 -28 C 46 -8 30 8 0 34 Z" fill="#DCCEF5"/>
  </g>
  <path d="M 921.5811137590382 577.3159332726299 Q 923.7956258963231 588.9421219933761 935.4218146170693 591.156634130661
           Q 923.7956258963231 593.371146267946 921.5811137590382 604.9973349886922
           Q 919.3666016217533 593.371146267946 907.7404129010071 591.156634130661
           Q 919.3666016217533 588.9421219933761 921.5811137590382 577.3159332726299 Z"
        fill="#BFDCD5" opacity="0.8969313878537448"/>
<ellipse cx="500" cy="900" rx="230" ry="44" fill="url(#shadow)"/>
<g transform="translate(500 625) rotate(-7) scale(1.12) translate(-500 -625)">

    <g>
      <rect x="268" y="286" width="464" height="230" rx="46" fill="#ECE5FB"/>
      <rect x="290" y="308" width="420" height="186" rx="34" fill="url(#glassg)"/>
      <g transform="translate(500 400) rotate(0) scale(1.2)" opacity="0.75">
    <ellipse cx="0" cy="-26" rx="15" ry="24" fill="#FFFFFF" transform="rotate(0)"/><ellipse cx="0" cy="-26" rx="15" ry="24" fill="#FFFFFF" transform="rotate(72)"/><ellipse cx="0" cy="-26" rx="15" ry="24" fill="#FFFFFF" transform="rotate(144)"/><ellipse cx="0" cy="-26" rx="15" ry="24" fill="#FFFFFF" transform="rotate(216)"/><ellipse cx="0" cy="-26" rx="15" ry="24" fill="#FFFFFF" transform="rotate(288)"/><circle r="11" fill="#BFDCD5"/></g>
      <rect x="268" y="500" width="464" height="330" rx="46" fill="url(#body)"/>
      <rect x="290" y="522" width="420" height="286" rx="32" fill="#F5F1FD"/>
      <rect x="310" y="554" width="84" height="84" rx="26"
                 fill="#DCCEF5" opacity="0.95"/>
               <rect x="310" y="554" width="84" height="40" rx="20"
                 fill="#FFFFFF" opacity="0.3"/><rect x="410" y="554" width="84" height="84" rx="26"
                 fill="#ECE5FB" opacity="0.95"/>
               <rect x="410" y="554" width="84" height="40" rx="20"
                 fill="#FFFFFF" opacity="0.3"/><rect x="510" y="554" width="84" height="84" rx="26"
                 fill="#B7A2E2" opacity="0.95"/>
               <rect x="510" y="554" width="84" height="40" rx="20"
                 fill="#FFFFFF" opacity="0.3"/><rect x="610" y="554" width="84" height="84" rx="26"
                 fill="#BFDCD5" opacity="0.95"/>
               <rect x="610" y="554" width="84" height="40" rx="20"
                 fill="#FFFFFF" opacity="0.3"/><rect x="310" y="658" width="84" height="84" rx="26"
                 fill="#FFFFFF" opacity="0.95"/>
               <rect x="310" y="658" width="84" height="40" rx="20"
                 fill="#FFFFFF" opacity="0.3"/><rect x="410" y="658" width="84" height="84" rx="26"
                 fill="#F5F1FD" opacity="0.95"/>
               <rect x="410" y="658" width="84" height="40" rx="20"
                 fill="#FFFFFF" opacity="0.3"/><rect x="510" y="658" width="84" height="84" rx="26"
                 fill="#DCCEF5" opacity="0.95"/>
               <rect x="510" y="658" width="84" height="40" rx="20"
                 fill="#FFFFFF" opacity="0.3"/><rect x="610" y="658" width="84" height="84" rx="26"
                 fill="#BFDCD5" opacity="0.95"/>
               <rect x="610" y="658" width="84" height="40" rx="20"
                 fill="#FFFFFF" opacity="0.3"/>
      <rect x="290" y="522" width="420" height="60" rx="30" fill="url(#gloss)" opacity="0.5"/>
    </g>
</g>
</svg>