<svg xmlns="http://www.w3.org/2000/svg" viewBox="0 0 1000 1250" width="1000" height="1250" role="img">

<defs>
  <linearGradient id="bg" x1="0" y1="0" x2="1" y2="1">
    <stop offset="0" stop-color="#FFFBF9"/>
    <stop offset="0.55" stop-color="#EBF5F2"/>
    <stop offset="1" stop-color="#DCEBE7"/>
  </linearGradient>
  <radialGradient id="bloom">
    <stop offset="0" stop-color="#FFFFFF" stop-opacity="0.95"/>
    <stop offset="1" stop-color="#FFFFFF" stop-opacity="0"/>
  </radialGradient>
  <radialGradient id="bloom2">
    <stop offset="0" stop-color="#BFDCD5" stop-opacity="0.4"/>
    <stop offset="1" stop-color="#BFDCD5" stop-opacity="0"/>
  </radialGradient>
  <linearGradient id="body" x1="0" y1="0" x2="1" y2="0.2">
    <stop offset="0" stop-color="#95BFB5"/>
    <stop offset="0.28" stop-color="#BFDCD5"/>
    <stop offset="0.52" stop-color="#FFFFFF" stop-opacity="0.92"/>
    <stop offset="0.72" stop-color="#BFDCD5"/>
    <stop offset="1" stop-color="#95BFB5"/>
  </linearGradient>
  <linearGradient id="cap" x1="0" y1="0" x2="1" y2="0.3">
    <stop offset="0" stop-color="#F8B6C8" stop-opacity="0.95"/>
    <stop offset="0.45" stop-color="#FFFFFF" stop-opacity="0.9"/>
    <stop offset="1" stop-color="#F8B6C8"/>
  </linearGradient>
  <linearGradient id="cream" x1="0" y1="0" x2="0.4" y2="1">
    <stop offset="0" stop-color="#FFFFFF"/>
    <stop offset="1" stop-color="#DCEBE7"/>
  </linearGradient>
  <linearGradient id="glassg" x1="0" y1="0" x2="1" y2="1">
    <stop offset="0" stop-color="#FFFFFF" stop-opacity="0.85"/>
    <stop offset="0.5" stop-color="#DCEBE7" stop-opacity="0.7"/>
    <stop offset="1" stop-color="#BFDCD5" stop-opacity="0.55"/>
  </linearGradient>
  <linearGradient id="gloss" x1="0" y1="0" x2="0" y2="1">
    <stop offset="0" stop-color="#FFFFFF" stop-opacity="0.9"/>
    <stop offset="1" stop-color="#FFFFFF" stop-opacity="0"/>
  </linearGradient>
  <radialGradient id="shadow">
    <stop offset="0" stop-color="#95BFB5" stop-opacity="0.4"/>
    <stop offset="1" stop-color="#95BFB5" stop-opacity="0"/>
  </radialGradient>
  <filter id="soft" x="-30%" y="-30%" width="160%" height="160%">
    <feGaussianBlur stdDeviation="9" result="b"/>
    <feComposite in="SourceGraphic" in2="b" operator="over"/>
  </filter>
</defs>

  <rect width="1000" height="1250" rx="0" fill="url(#bg)"/>
  <circle cx="500" cy="450" r="440" fill="url(#bloom)"/>
  <circle cx="200" cy="925" r="300" fill="url(#bloom2)"/>
  
  <path d="M 96.09446969450867 1108.7018410674314 Q 101.2569913229579 1135.8050796167897 128.36022987231632 1140.967601245239
           Q 101.2569913229579 1146.1301228736882 96.09446969450867 1173.2333614230465
           Q 90.93194806605945 1146.1301228736882 63.82870951670101 1140.967601245239
           Q 90.93194806605945 1135.8050796167897 96.09446969450867 1108.7018410674314 Z"
        fill="#F8B6C8" opacity="0.6660234419312546"/><g transform="translate(835.3792949909151 986.1522495151985) rotate(59.29755716053542) scale(0.5617489283818276)" opacity="0.6184089374573984">
    <ellipse cx="0" cy="-26" rx="15" ry="24" fill="#DCEBE7" transform="rotate(0)"/><ellipse cx="0" cy="-26" rx="15" ry="24" fill="#DCEBE7" transform="rotate(72)"/><ellipse cx="0" cy="-26" rx="15" ry="24" fill="#DCEBE7" transform="rotate(144)"/><ellipse cx="0" cy="-26" rx="15" ry="24" fill="#DCEBE7" transform="rotate(216)"/><ellipse cx="0" cy="-26" rx="15" ry="24" fill="#DCEBE7" transform="rotate(288)"/><circle r="11" fill="#F8B6C8"/></g>
  <g transform="translate(490.8595127992886 1032.6475702995876) rotate(12.268259005870913) scale(0.49769910707389853)" opacity="0.5780375578469016">
    <path d="M0 34 C -30 8 -46 -8 -46 -28 C -46 -46 -32 -58 -17 -58 C -7 -58 0 -52 0 -44
             C 0 -52 7 -58 17 -58 C 32 -58 46 -46 46 -28 C 46 -8 30 8 0 34 Z" fill="#BFDCD5"/>
  </g>
  <path d="M 132.80762787238473 539.3580902320874 Q 137.79717212924842 565.5531975806217 163.9922794777828 570.5427418374854
           Q 137.79717212924842 575.5322860943492 132.80762787238473 601.7273934428835
           Q 127.81808361552103 575.5322860943492 101.62297626698665 570.5427418374854
           Q 127.81808361552103 565.5531975806217 132.80762787238473 539.3580902320874 Z"
        fill="#F8B6C8" opacity="0.5802612871679117"/><g transform="translate(395.6302567437573 957.6505751280586) rotate(0.35792084444120603) scale(0.3536427936932471)" opacity="0.7245812073439184">
    <ellipse cx="0" cy="-26" rx="15" ry="24" fill="#DCEBE7" transform="rotate(0)"/><ellipse cx="0" cy="-26" rx="15" ry="24" fill="#DCEBE7" transform="rotate(72)"/><ellipse cx="0" cy="-26" rx="15" ry="24" fill="#DCEBE7" transform="rotate(144)"/><ellipse cx="0" cy="-26" rx="15" ry="24" fill="#DCEBE7" transform="rotate(216)"/><ellipse cx="0" cy="-26" rx="15" ry="24" fill="#DCEBE7" transform="rotate(288)"/><circle r="11" fill="#F8B6C8"/></g>
  <path d="M 792.1738590692858 568.1205515705241 Q 794.2635952092032 579.0916663050909 805.2347099437701 581.1814024450084
           Q 794.2635952092032 583.2711385849259 792.1738590692858 594.2422533194928
           Q 790.0841229293683 583.2711385849259 779.1130081948014 581.1814024450084
           Q 790.0841229293683 579.0916663050909 792.1738590692858 568.1205515705241 Z"
        fill="#F8B6C8" opacity="0.6427408335197166"/>
  <path d="M 597.1606053012988 397.4897479732425 Q 600.168469434001 413.28103466992917 615.9597561306877 416.2888988026314
           Q 600.168469434001 419.2967629353337 597.1606053012988 435.08804963202033
           Q 594.1527411685965 419.2967629353337 578.36145447191 416.2888988026314
           Q 594.1527411685965 413.28103466992917 597.1606053012988 397.4897479732425 Z"
        fill="#F8B6C8" opacity="0.5426103393012754"/>
<ellipse cx="500" cy="900" rx="230" ry="44" fill="url(#shadow)"/>
<g transform="translate(500 625) rotate(0) scale(1.12) translate(-500 -625)">

    <g>
      <rect x="400" y="452" width="200" height="384" rx="46" fill="url(#glassg)"/>
      <rect x="400" y="572" width="200" height="264" rx="46" fill="#BFDCD5" opacity="0.68"/>
      <rect x="428" y="480" width="36" height="330" rx="18" fill="url(#gloss)" opacity="0.6"/>
      <rect x="436" y="300" width="128" height="164" rx="30" fill="url(#cap)"/>
      <rect x="466" y="248" width="68" height="70" rx="26" fill="#95BFB5" opacity="0.45"/>
      <rect x="482" y="464" width="36" height="300" rx="18" fill="#FFFFFF" opacity="0.5"/>
      <ellipse cx="500" cy="770" rx="30" ry="42" fill="#FFFFFF" opacity="0.6"/>
      
  <path d="M 596 340 Q 602.4 373.6 636 380
           Q 602.4 386.4 596 420
           Q 589.6 386.4 556 380
           Q 589.6 373.6 596 340 Z"
        fill="#FFFFFF" opacity="0.85"/>
      <rect x="418" y="660" width="164" height="96" rx="20" fill="#FFFFFF" opacity="0.7"/>
    </g>
</g>
</svg>