<svg xmlns="http://www.w3.org/2000/svg" viewBox="0 0 1000 1250" width="1000" height="1250" role="img">

<defs>
  <linearGradient id="bg" x1="0" y1="0" x2="1" y2="1">
    <stop offset="0" stop-color="#FFFBF9"/>
    <stop offset="0.55" stop-color="#F5F1FD"/>
    <stop offset="1" stop-color="#ECE5FB"/>
  </linearGradient>
  <radialGradient id="bloom">
    <stop offset="0" stop-color="#FFFFFF" stop-opacity="0.95"/>
    <stop offset="1" stop-color="#FFFFFF" stop-opacity="0"/>
  </radialGradient>
  <radialGradient id="bloom2">
    <stop offset="0" stop-color="#DCCEF5" stop-opacity="0.4"/>
    <stop offset="1" stop-color="#DCCEF5" stop-opacity="0"/>
  </radialGradient>
  <linearGradient id="body" x1="0" y1="0" x2="1" y2="0.2">
    <stop offset="0" stop-color="#B7A2E2"/>
    <stop offset="0.28" stop-color="#DCCEF5"/>
    <stop offset="0.52" stop-color="#FFFFFF" stop-opacity="0.92"/>
    <stop offset="0.72" stop-color="#DCCEF5"/>
    <stop offset="1" stop-color="#B7A2E2"/>
  </linearGradient>
  <linearGradient id="cap" x1="0" y1="0" x2="1" y2="0.3">
    <stop offset="0" stop-color="#BFDCD5" stop-opacity="0.95"/>
    <stop offset="0.45" stop-color="#FFFFFF" stop-opacity="0.9"/>
    <stop offset="1" stop-color="#BFDCD5"/>
  </linearGradient>
  <linearGradient id="cream" x1="0" y1="0" x2="0.4" y2="1">
    <stop offset="0" stop-color="#FFFFFF"/>
    <stop offset="1" stop-color="#ECE5FB"/>
  </linearGradient>
  <linearGradient id="glassg" x1="0" y1="0" x2="1" y2="1">
    <stop offset="0" stop-color="#FFFFFF" stop-opacity="0.85"/>
    <stop offset="0.5" stop-color="#ECE5FB" stop-opacity="0.7"/>
    <stop offset="1" stop-color="#DCCEF5" stop-opacity="0.55"/>
  </linearGradient>
  <linearGradient id="gloss" x1="0" y1="0" x2="0" y2="1">
    <stop offset="0" stop-color="#FFFFFF" stop-opacity="0.9"/>
    <stop offset="1" stop-color="#FFFFFF" stop-opacity="0"/>
  </linearGradient>
  <radialGradient id="shadow">
    <stop offset="0" stop-color="#B7A2E2" stop-opacity="0.4"/>
    <stop offset="1" stop-color="#B7A2E2" stop-opacity="0"/>
  </radialGradient>
  <filter id="soft" x="-30%" y="-30%" width="160%" height="160%">
    <feGaussianBlur stdDeviation="9" result="b"/>
    <feComposite in="SourceGraphic" in2="b" operator="over"/>
  </filter>
</defs>

  <rect width="1000" height="1250" rx="0" fill="url(#bg)"/>
  <circle cx="500" cy="450" r="440" fill="url(#bloom)"/>
  <circle cx="200" cy="925" r="300" fill="url(#bloom2)"/>
  
  <g transform="translate(370.369879668923 220.45917718248364) rotate(-1.6579749320242314) scale(0.26571304238467763)" opacity="0.4624895092449053">
    <path d="M0 34 C -30 8 -46 -8 -46 -28 C -46 -46 -32 -58 -17 -58 C -7 -58 0 -52 0 -44
             C 0 -52 7 -58 17 -58 C 32 -58 46 -46 46 -28 C 46 -8 30 8 0 34 Z" fill="#DCCEF5"/>
  </g><g transform="translate(462.1473701877029 897.1492917343502) rotate(16.432666239731635) scale(0.3249797286512141)" opacity="0.6235983267599702">
    <ellipse cx="0" cy="-26" rx="15" ry="24" fill="#ECE5FB" transform="rotate(0)"/><ellipse cx="0" cy="-26" rx="15" ry="24" fill="#ECE5FB" transform="rotate(72)"/><ellipse cx="0" cy="-26" rx="15" ry="24" fill="#ECE5FB" transform="rotate(144)"/><ellipse cx="0" cy="-26" rx="15" ry="24" fill="#ECE5FB" transform="rotate(216)"/><ellipse cx="0" cy="-26" rx="15" ry="24" fill="#ECE5FB" transform="rotate(288)"/><circle r="11" fill="#BFDCD5"/></g><g transform="translate(679.8553061483943 532.2406474940858) rotate(11.043912187259563) scale(0.6081479693773649)" opacity="0.7188383840712145">
    <ellipse cx="0" cy="-26" rx="15" ry="24" fill="#ECE5FB" transform="rotate(0)"/><ellipse cx="0" cy="-26" rx="15" ry="24" fill="#ECE5FB" transform="rotate(72)"/><ellipse cx="0" cy="-26" rx="15" ry="24" fill="#ECE5FB" transform="rotate(144)"/><ellipse cx="0" cy="-26" rx="15" ry="24" fill="#ECE5FB" transform="rotate(216)"/><ellipse cx="0" cy="-26" rx="15" ry="24" fill="#ECE5FB" transform="rotate(288)"/><circle r="11" fill="#BFDCD5"/></g>
  <path d="M 404.7573811046382 230.69569582286817 Q 409.4669540581209 255.4209538286523 434.19221206390506 260.130526782135
           Q 409.4669540581209 264.8400997356177 404.7573811046382 289.56535774140184
           Q 400.04780815115555 264.8400997356177 375.3225501453714 260.130526782135
           Q 400.04780815115555 255.4209538286523 404.7573811046382 230.69569582286817 Z"
        fill="#BFDCD5" opacity="0.5784209529668288"/>
  <path d="M 115.06191473925665 769.6037935152685 Q 117.8646965417794 784.318397978513 132.5793010050238 787.1211797810357
           Q 117.8646965417794 789.9239615835585 115.06191473925665 804.6385660468029
           Q 112.2591329367339 789.9239615835585 97.54452847348948 787.1211797810357
           Q 112.2591329367339 784.318397978513 115.06191473925665 769.6037935152685 Z"
        fill="#BFDCD5" opacity="0.859785589165786"/><g transform="translate(320.2544615233825 878.9313383437053) rotate(75.98675720485556) scale(0.3825479334067068)" opacity="0.6556150449352479">
    <ellipse cx="0" cy="-26" rx="15" ry="24" fill="#ECE5FB" transform="rotate(0)"/><ellipse cx="0" cy="-26" rx="15" ry="24" fill="#ECE5FB" transform="rotate(72)"/><ellipse cx="0" cy="-26" rx="15" ry="24" fill="#ECE5FB" transform="rotate(144)"/><ellipse cx="0" cy="-26" rx="15" ry="24" fill="#ECE5FB" transform="rotate(216)"/><ellipse cx="0" cy="-26" rx="15" ry="24" fill="#ECE5FB" transform="rotate(288)"/><circle r="11" fill="#BFDCD5"/></g>
<ellipse cx="500" cy="900" rx="230" ry="44" fill="url(#shadow)"/>
<g transform="translate(500 625) rotate(0) scale(1.12) translate(-500 -625)">
<g>
      <g transform="translate(500 560) rotate(0) scale(1.14)">
        <rect x="-24" y="0" width="48" height="300" rx="24" fill="url(#body)"/>
        <rect x="-30" y="-46" width="60" height="60" rx="16" fill="url(#cap)"/>
        <path d="M-56 -46 c0 -96 22 -150 56 -150 c34 0 56 54 56 150 Z" fill="#ECE5FB"/>
        <path d="M-34 -60 c0 -74 14 -116 34 -116 c8 0 16 8 22 26 c-26 18 -44 52 -50 90 Z"
              fill="#FFFFFF" opacity="0.55"/>
      </g></g>
</g>
</svg>