<svg xmlns="http://www.w3.org/2000/svg" viewBox="0 0 1000 1250" width="1000" height="1250" role="img">

<defs>
  <linearGradient id="bg" x1="0" y1="0" x2="1" y2="1">
    <stop offset="0" stop-color="#FFFBF9"/>
    <stop offset="0.55" stop-color="#F5F1FD"/>
    <stop offset="1" stop-color="#ECE5FB"/>
  </linearGradient>
  <radialGradient id="bloom">
    <stop offset="0" stop-color="#FFFFFF" stop-opacity="0.95"/>
    <stop offset="1" stop-color="#FFFFFF" stop-opacity="0"/>
  </radialGradient>
  <radialGradient id="bloom2">
    <stop offset="0" stop-color="#DCCEF5" stop-opacity="0.4"/>
    <stop offset="1" stop-color="#DCCEF5" stop-opacity="0"/>
  </radialGradient>
  <linearGradient id="body" x1="0" y1="0" x2="1" y2="0.2">
    <stop offset="0" stop-color="#B7A2E2"/>
    <stop offset="0.28" stop-color="#DCCEF5"/>
    <stop offset="0.52" stop-color="#FFFFFF" stop-opacity="0.92"/>
    <stop offset="0.72" stop-color="#DCCEF5"/>
    <stop offset="1" stop-color="#B7A2E2"/>
  </linearGradient>
  <linearGradient id="cap" x1="0" y1="0" x2="1" y2="0.3">
    <stop offset="0" stop-color="#BFDCD5" stop-opacity="0.95"/>
    <stop offset="0.45" stop-color="#FFFFFF" stop-opacity="0.9"/>
    <stop offset="1" stop-color="#BFDCD5"/>
  </linearGradient>
  <linearGradient id="cream" x1="0" y1="0" x2="0.4" y2="1">
    <stop offset="0" stop-color="#FFFFFF"/>
    <stop offset="1" stop-color="#ECE5FB"/>
  </linearGradient>
  <linearGradient id="glassg" x1="0" y1="0" x2="1" y2="1">
    <stop offset="0" stop-color="#FFFFFF" stop-opacity="0.85"/>
    <stop offset="0.5" stop-color="#ECE5FB" stop-opacity="0.7"/>
    <stop offset="1" stop-color="#DCCEF5" stop-opacity="0.55"/>
  </linearGradient>
  <linearGradient id="gloss" x1="0" y1="0" x2="0" y2="1">
    <stop offset="0" stop-color="#FFFFFF" stop-opacity="0.9"/>
    <stop offset="1" stop-color="#FFFFFF" stop-opacity="0"/>
  </linearGradient>
  <radialGradient id="shadow">
    <stop offset="0" stop-color="#B7A2E2" stop-opacity="0.4"/>
    <stop offset="1" stop-color="#B7A2E2" stop-opacity="0"/>
  </radialGradient>
  <filter id="soft" x="-30%" y="-30%" width="160%" height="160%">
    <feGaussianBlur stdDeviation="9" result="b"/>
    <feComposite in="SourceGraphic" in2="b" operator="over"/>
  </filter>
</defs>

  <rect width="1000" height="1250" rx="0" fill="url(#bg)"/>
  <circle cx="680" cy="450" r="440" fill="url(#bloom)"/>
  <circle cx="200" cy="925" r="300" fill="url(#bloom2)"/>
  
  <path d="M 483.4923775247227 1034.157030050137 Q 487.4962263502257 1055.177236384028 508.51643268411647 1059.181085209531
           Q 487.4962263502257 1063.1849340350338 483.4923775247227 1084.2051403689247
           Q 479.4885286992197 1063.1849340350338 458.46832236532896 1059.181085209531
           Q 479.4885286992197 1055.177236384028 483.4923775247227 1034.157030050137 Z"
        fill="#BFDCD5" opacity="0.7042363535652276"/>
  <path d="M 500.851191031608 198.6789105222364 Q 504.21193083420764 216.32279448588451 521.8558147978557 219.68353428848417
           Q 504.21193083420764 223.04427409108382 500.851191031608 240.68815805473193
           Q 497.49045122900833 223.04427409108382 479.8465672653602 219.68353428848417
           Q 497.49045122900833 216.32279448588451 500.851191031608 198.6789105222364 Z"
        fill="#BFDCD5" opacity="0.5489106568032044"/>
  <g transform="translate(159.0350239435537 85.04108438737792) rotate(2.399797067418504) scale(0.4554230418618983)" opacity="0.5308201937990451">
    <path d="M0 34 C -30 8 -46 -8 -46 -28 C -46 -46 -32 -58 -17 -58 C -7 -58 0 -52 0 -44
             C 0 -52 7 -58 17 -58 C 32 -58 46 -46 46 -28 C 46 -8 30 8 0 34 Z" fill="#DCCEF5"/>
  </g>
  <g transform="translate(819.8587057365651 631.7996228456494) rotate(5.028532962341359) scale(0.3605113520710834)" opacity="0.5361050100169191">
    <path d="M0 34 C -30 8 -46 -8 -46 -28 C -46 -46 -32 -58 -17 -58 C -7 -58 0 -52 0 -44
             C 0 -52 7 -58 17 -58 C 32 -58 46 -46 46 -28 C 46 -8 30 8 0 34 Z" fill="#DCCEF5"/>
  </g>
  <path d="M 178.780434316751 1051.3814763538367 Q 181.34444729384822 1064.8425444835968 194.80551542360848 1067.406557460694
           Q 181.34444729384822 1069.9705704377914 178.780434316751 1083.4316385675515
           Q 176.2164213396538 1069.9705704377914 162.75535320989354 1067.406557460694
           Q 176.2164213396538 1064.8425444835968 178.780434316751 1051.3814763538367 Z"
        fill="#BFDCD5" opacity="0.788054155081561"/>
  <path d="M 341.2984633644097 1146.070473218868 Q 345.3390935209199 1167.2837815405464 366.5524018425982 1171.3244116970566
           Q 345.3390935209199 1175.3650418535667 341.2984633644097 1196.578350175245
           Q 337.2578332078995 1175.3650418535667 316.0445248862212 1171.3244116970566
           Q 337.2578332078995 1167.2837815405464 341.2984633644097 1146.070473218868 Z"
        fill="#BFDCD5" opacity="0.5120598735400101"/>
<ellipse cx="500" cy="900" rx="230" ry="44" fill="url(#shadow)"/>
<g transform="translate(500 625) rotate(-7) scale(1.12) translate(-500 -625)">
<g>
      <g transform="translate(340 560) rotate(-13) scale(0.9)">
        <rect x="-24" y="0" width="48" height="250" rx="24" fill="url(#body)"/>
        <rect x="-30" y="-46" width="60" height="60" rx="16" fill="url(#cap)"/>
        <path d="M-56 -46 c0 -96 22 -150 56 -150 c34 0 56 54 56 150 Z" fill="#ECE5FB"/>
        <path d="M-34 -60 c0 -74 14 -116 34 -116 c8 0 16 8 22 26 c-26 18 -44 52 -50 90 Z"
              fill="#FFFFFF" opacity="0.55"/>
      </g>
      <g transform="translate(500 560) rotate(0) scale(1.05)">
        <rect x="-24" y="0" width="48" height="290" rx="24" fill="url(#body)"/>
        <rect x="-30" y="-46" width="60" height="60" rx="16" fill="url(#cap)"/>
        <path d="M-56 -46 c0 -96 22 -150 56 -150 c34 0 56 54 56 150 Z" fill="#ECE5FB"/>
        <path d="M-34 -60 c0 -74 14 -116 34 -116 c8 0 16 8 22 26 c-26 18 -44 52 -50 90 Z"
              fill="#FFFFFF" opacity="0.55"/>
      </g>
      <g transform="translate(660 560) rotate(13) scale(0.9)">
        <rect x="-24" y="0" width="48" height="250" rx="24" fill="url(#body)"/>
        <rect x="-30" y="-46" width="60" height="60" rx="16" fill="url(#cap)"/>
        <path d="M-56 -46 c0 -96 22 -150 56 -150 c34 0 56 54 56 150 Z" fill="#ECE5FB"/>
        <path d="M-34 -60 c0 -74 14 -116 34 -116 c8 0 16 8 22 26 c-26 18 -44 52 -50 90 Z"
              fill="#FFFFFF" opacity="0.55"/>
      </g></g>
</g>
</svg>